# xmcd
#
# Track frame offsets: 
#        150
#        13888
#        23908
#        32229
#        41177
#        49935
#        58591
#        67857
#        77920
#        84674
#        94935
#        105639
#        120312
#        132025
#        141718
#        153074
#
# Disc length: 2240 seconds
#
# Revision: 0
# Processed by: cddbd v1.5.2PL0 Copyright (c) Steve Scherf et al.
# Submitted via: ExactAudioCopyFreeDBPlugin 1.0
#
DISCID=d708be10
DTITLE=Paul Rishell - Blues On A Holiday
DYEAR=1990
DGENRE=Blues
TTITLE0=Big Road Blues
TTITLE1=Creepy John
TTITLE2=Jinx Blues
TTITLE3=Dallas
TTITLE4=Careless Love
TTITLE5=Louise
TTITLE6=Too Tight
TTITLE7=Trouble Blues
TTITLE8=Honey It Must Be Love
TTITLE9=Talk To Me Baby
TTITLE10=Keep It To Yourself
TTITLE11=Possession
TTITLE12=You Got Me Wrong
TTITLE13=Like I Used To Do
TTITLE14=Blues On A Holiday
TTITLE15=Hoodoo Party
EXTD=
EXTT0=
EXTT1=
EXTT2=
EXTT3=
EXTT4=
EXTT5=
EXTT6=
EXTT7=
EXTT8=
EXTT9=
EXTT10=
EXTT11=
EXTT12=
EXTT13=
EXTT14=
EXTT15=
PLAYORDER=
